<svg t="1697617611426" class="icon" viewBox="0 0 1024 1024" version="1.1" xmlns="http://www.w3.org/2000/svg" p-id="9542" width="200" height="200"><path d="M512 1024C229.3 1024 0 794.8 0 512 0 512.1 512 0 512 0c282.8 0 512 229.2 512 512 0 282.7-229.3 512-512 512z" fill="#00227D" p-id="9543"></path><path d="M512 267.1V0h-0.1C229.1 0 0 229.3 0 512h267.1V361.6L417.5 512h93.1l1.3-1.4v-93.1L361.6 267.1H512z" fill="#F0F0F0" p-id="9544"></path><path d="M259 66.8A515.345 515.345 0 0 0 66.8 259v253h133.6V200.3H512V66.8H259z" fill="#D80027" p-id="9545"></path><path d="M512 449L330.1 267.2h-63L512 512v-63z" fill="#D80027" p-id="9546"></path><path d="M308.8 601l28.2 58.7 63.4-14.6-28.4 58.6 51 40.5-63.5 14.3 0.2 65.1-50.8-40.8-50.9 40.9 0.2-65.1-63.5-14.3 51-40.5-28.4-58.6 63.4 14.6 28.1-58.8z m457.8 111.4l14 29.3 31.7-7.3-14.2 29.3 25.5 20.2-31.7 7.2 0.1 32.6-25.4-20.4-25.4 20.4 0.1-32.6-31.8-7.2 25.5-20.2-14.2-29.3 31.7 7.3 14.1-29.3zM635.9 400.7l14 29.4 31.7-7.3-14.2 29.2 25.6 20.2-31.8 7.2 0.1 32.6-25.4-20.4-25.4 20.4 0.1-32.6-31.8-7.2 25.5-20.2-14.2-29.3 31.7 7.3c0 0.1 14.1-29.3 14.1-29.3z m130.7-178.1l14 29.4 31.7-7.4-14.2 29.4 25.5 20.2-31.7 7.1 0.1 32.6-25.4-20.4-25.4 20.4 0.1-32.6-31.8-7.2L735 274l-14.2-29.3 31.7 7.4c0-0.1 14.1-29.5 14.1-29.5z m114.1 133.6l14.1 29.4 31.7-7.4-14.2 29.3 25.5 20.2-31.8 7.2 0.1 32.6-25.5-20.4-25.4 20.4 0.1-32.6-31.8-7.2 25.5-20.2-14-29.3 31.7 7.4 14-29.4zM799.1 512l11.1 34H846l-29 21 11 34-29-21-28.9 21 11.1-34-29-21H788c0.1 0 11.1-34 11.1-34z" fill="#F0F0F0" p-id="9547"></path></svg>