<?xml version="1.0" encoding="utf-8"?>
<svg version="1.1" xmlns:xlink="http://www.w3.org/1999/xlink" width="30px" height="26px" xmlns="http://www.w3.org/2000/svg">
  <defs>
    <linearGradient gradientUnits="userSpaceOnUse" x1="28.91304347826087" y1="12.999999999999908" x2="0" y2="13" id="LinearGradient28">
      <stop id="Stop29" stop-color="#f8cc6d" offset="0" />
      <stop id="Stop30" stop-color="#fe8086" offset="1" />
    </linearGradient>
    <mask fill="white" id="clip31">
      <path d="M 0.3002711054104529 15.918578629032256  C -0.763992537313438 19.90552923387096  1.0984579057835848 22.796096270161286  8.41528684701493 25.886020665322572  C 10.0117041744403 26.28473538306451  10.543682952425378 25.188253528225804  9.87851270988806 24.789571572580645  C 7.749985424440303 23.69315524193548  6.6857217817164125 21.69967993951612  7.483952308768652 19.90552923387096  C 8.282139109141797 17.912053931451606  10.410666394589553 17.114657258064508  10.410666394589553 14.12442792338709  C 10.410666394589553 14.12442792338709  13.071303638059707 15.619558971774186  12.539193680037307 17.912086693548392  C 15.199830923507461 15.619591733870964  14.002550722947758 12.629362399193543  13.470440764925373 11.233893649193543  C 20.255116021455226 13.925103326612897  26.108544193097014 19.80589969758064  19.32386893656716 24.78960433467742  C 18.52568213619403 25.28794858870967  19.32386893656716 26.18504032258064  20.521192863805975 25.886020665322572  C 39.0127244636194 18.01174899193548  25.044324277052244 6.250156249999998  22.64972014925373 4.854720262096771  C 23.447906949626862 6.250156249999998  23.580967234141795 8.442988911290314  21.984593633395516 9.539438004032254  C 19.19085237873135 1.6651663306451536  12.406220848880603 0.07037298387096393  12.406220848880603 0.07037298387096393  C 13.204407649253735 4.157018649193544  9.346490205223876 8.542716733870968  5.754562150186562 11.931628024193548  C 5.621545592350748 10.237172379032257  5.488529034514923 9.140756048387095  4.424221665111938 7.6456249999999955  C 4.158188549440299 10.536192036290316  1.0984141791044775 12.928349294354835  0.3002711054104529 15.918578629032256  Z " fill-rule="evenodd" />
    </mask>
  </defs>
  <g transform="matrix(1 0 0 1 -78 -355 )">
    <path d="M 0.3002711054104529 15.918578629032256  C -0.763992537313438 19.90552923387096  1.0984579057835848 22.796096270161286  8.41528684701493 25.886020665322572  C 10.0117041744403 26.28473538306451  10.543682952425378 25.188253528225804  9.87851270988806 24.789571572580645  C 7.749985424440303 23.69315524193548  6.6857217817164125 21.69967993951612  7.483952308768652 19.90552923387096  C 8.282139109141797 17.912053931451606  10.410666394589553 17.114657258064508  10.410666394589553 14.12442792338709  C 10.410666394589553 14.12442792338709  13.071303638059707 15.619558971774186  12.539193680037307 17.912086693548392  C 15.199830923507461 15.619591733870964  14.002550722947758 12.629362399193543  13.470440764925373 11.233893649193543  C 20.255116021455226 13.925103326612897  26.108544193097014 19.80589969758064  19.32386893656716 24.78960433467742  C 18.52568213619403 25.28794858870967  19.32386893656716 26.18504032258064  20.521192863805975 25.886020665322572  C 39.0127244636194 18.01174899193548  25.044324277052244 6.250156249999998  22.64972014925373 4.854720262096771  C 23.447906949626862 6.250156249999998  23.580967234141795 8.442988911290314  21.984593633395516 9.539438004032254  C 19.19085237873135 1.6651663306451536  12.406220848880603 0.07037298387096393  12.406220848880603 0.07037298387096393  C 13.204407649253735 4.157018649193544  9.346490205223876 8.542716733870968  5.754562150186562 11.931628024193548  C 5.621545592350748 10.237172379032257  5.488529034514923 9.140756048387095  4.424221665111938 7.6456249999999955  C 4.158188549440299 10.536192036290316  1.0984141791044775 12.928349294354835  0.3002711054104529 15.918578629032256  Z " fill-rule="nonzero" fill="url(#LinearGradient28)" stroke="none" transform="matrix(1 0 0 1 78 355 )" />
    <path d="M 0.3002711054104529 15.918578629032256  C -0.763992537313438 19.90552923387096  1.0984579057835848 22.796096270161286  8.41528684701493 25.886020665322572  C 10.0117041744403 26.28473538306451  10.543682952425378 25.188253528225804  9.87851270988806 24.789571572580645  C 7.749985424440303 23.69315524193548  6.6857217817164125 21.69967993951612  7.483952308768652 19.90552923387096  C 8.282139109141797 17.912053931451606  10.410666394589553 17.114657258064508  10.410666394589553 14.12442792338709  C 10.410666394589553 14.12442792338709  13.071303638059707 15.619558971774186  12.539193680037307 17.912086693548392  C 15.199830923507461 15.619591733870964  14.002550722947758 12.629362399193543  13.470440764925373 11.233893649193543  C 20.255116021455226 13.925103326612897  26.108544193097014 19.80589969758064  19.32386893656716 24.78960433467742  C 18.52568213619403 25.28794858870967  19.32386893656716 26.18504032258064  20.521192863805975 25.886020665322572  C 39.0127244636194 18.01174899193548  25.044324277052244 6.250156249999998  22.64972014925373 4.854720262096771  C 23.447906949626862 6.250156249999998  23.580967234141795 8.442988911290314  21.984593633395516 9.539438004032254  C 19.19085237873135 1.6651663306451536  12.406220848880603 0.07037298387096393  12.406220848880603 0.07037298387096393  C 13.204407649253735 4.157018649193544  9.346490205223876 8.542716733870968  5.754562150186562 11.931628024193548  C 5.621545592350748 10.237172379032257  5.488529034514923 9.140756048387095  4.424221665111938 7.6456249999999955  C 4.158188549440299 10.536192036290316  1.0984141791044775 12.928349294354835  0.3002711054104529 15.918578629032256  Z " stroke-width="2" stroke="#ffffff" fill="none" transform="matrix(1 0 0 1 78 355 )" mask="url(#clip31)" />
  </g>
</svg>