<?xml version="1.0" encoding="utf-8"?>
<svg version="1.1" xmlns:xlink="http://www.w3.org/1999/xlink" width="12px" height="14px" xmlns="http://www.w3.org/2000/svg">
  <g transform="matrix(1 0 0 1 -22 -326 )">
    <path d="M 9.794117647058822 12.353115587349398  L 10.772977941176471 12.603492093373495  C 11.136603860294118 12.695736069277109  11.519186580882353 12.572195030120483  11.746668198529411 12.28722703313253  C 11.974149816176471 12.002259036144578  12.003446691176471 11.618458207831326  11.815602022058822 11.308782003012048  L 10.168083639705882 8.582643072289157  C 10.926355698529411 7.660203313253012  11.338235294117647 6.528567394578314  11.338235294117647 5.335984563253012  C 11.338235294117647 3.92761671686747  10.764361213235293 2.6049039909638556  9.723460477941178 1.608339608433735  C 8.680836397058822 0.6117752259036144  7.296989889705882 0.06325301204819277  5.823529411764706 0.06325301204819277  C 4.350068933823529 0.06325301204819277  2.9662224264705883 0.6117752259036144  1.9235983455882355 1.6066923945783131  C 0.8826976102941178 2.6032567771084336  0.3088235294117647 3.9259695030120483  0.3088235294117647 5.3343373493975905  C 0.3088235294117647 6.637283509036145  0.7999770220588236 7.867752259036145  1.6995634191176472 8.833019578313253  L 0.20542279411764708 11.308782003012048  C 0.017578125 11.620105421686747  0.04342830882352941 12.005553463855422  0.27263327205882354 12.290521460843372  C 0.5018382352941176 12.575489457831326  0.8844209558823529 12.699030496987952  1.2463235294117647 12.606786521084338  L 2.226907169117647 12.356410015060241  L 2.4888556985294117 13.292027484939759  C 2.5853630514705883 13.639589608433734  2.8903952205882355 13.893260542168674  3.262637867647059 13.941029743975903  C 3.3039981617647056 13.945971385542169  3.3436351102941178 13.949265813253012  3.384995404411765 13.949265813253012  C 3.712431066176471 13.949265813253012  4.017463235294118 13.782897213855422  4.186351102941177 13.506165286144578  L 5.938993566176471 10.605421686746988  C 5.987247242647059 10.603774472891567  6.035500919117647 10.603774472891567  6.0837545955882355 10.600480045180724  L 7.83639705882353 13.504518072289157  C 8.003561580882353 13.78125  8.30859375 13.94761859939759  8.636029411764707 13.94761859939759  C 8.675666360294118 13.94761859939759  8.717026654411764 13.944324171686747  8.758386948529411 13.939382530120483  C 9.130629595588236 13.893260542168674  9.433938419117647 13.637942394578314  9.532169117647058 13.290380271084338  L 9.794117647058822 12.353115587349398  Z M 2.7697610294117645 8.370152484939759  L 2.578469669117647 8.193900602409634  C 1.8253676470588234 7.411474021084338  1.4117647058823528 6.403379141566265  1.4117647058823528 5.3343373493975905  C 1.4117647058823528 4.207643072289157  1.8701746323529411 3.148484563253012  2.7042738970588234 2.352880271084337  C 3.5383731617647056 1.555628765060241  4.6447610294117645 1.1174698795180722  5.823529411764706 1.1174698795180722  C 7.002297794117647 1.1174698795180722  8.110409007352942 1.555628765060241  8.942784926470589 2.352880271084337  C 9.776884191176471 3.1501317771084336  10.235294117647058 4.207643072289157  10.235294117647058 5.3343373493975905  C 10.235294117647058 6.2633659638554215  9.921645220588236 7.147919804216868  9.344324448529411 7.8759883283132535  L 9.078929227941178 8.15601468373494  C 8.363740808823529 8.910438629518072  7.379710477941177 9.389777861445783  6.309512867647058 9.50343561746988  L 5.920036764705882 9.544615963855422  L 5.649471507352941 9.534732680722891  C 4.565487132352941 9.493552334337348  3.5418198529411766 9.080101656626505  2.7697610294117645 8.370152484939759  Z M 8.305147058823529 5.3343373493975905  C 8.305147058823529 4.026449548192771  7.19186580882353 2.962349397590361  5.823529411764706 2.962349397590361  C 4.455193014705882 2.962349397590361  3.3419117647058822 4.026449548192771  3.3419117647058822 5.3343373493975905  C 3.3419117647058822 6.6422251506024095  4.455193014705882 7.706325301204819  5.823529411764706 7.706325301204819  C 7.19186580882353 7.706325301204819  8.305147058823529 6.6422251506024095  8.305147058823529 5.3343373493975905  Z M 1.3738511029411764 11.481739457831326  L 2.5319393382352944 9.564382530120483  C 3.185087316176471 10.030544051204819  3.9312959558823533 10.348456325301203  4.725758272058823 10.501647213855422  L 3.443589154411765 12.623258659638555  L 3.2057674632352944 11.776590737951809  C 3.15234375 11.585513930722891  3.0248161764705883 11.42738140060241  2.8455882352941178 11.328548569277109  C 2.7266773897058822 11.262660015060241  2.5939797794117645 11.229715737951809  2.461282169117647 11.229715737951809  C 2.3940716911764706 11.229715737951809  2.3268612132352944 11.237951807228916  2.2596507352941178 11.254423945783133  L 1.3738511029411764 11.481739457831326  Z M 7.2487362132352935 10.429169804216867  C 8.024241727941178 10.231504141566266  8.746323529411764 9.874058734939759  9.368451286764707 9.371658509036145  L 10.643727022058822 11.483386671686747  L 9.759650735294118 11.254423945783133  C 9.349494485294118 11.149002259036145  8.923828125 11.382906626506024  8.813534007352942 11.776590737951809  L 8.575712316176471 12.624905873493976  L 7.2487362132352935 10.429169804216867  Z M 7.202205882352942 5.3343373493975905  C 7.202205882352942 6.060758659638554  6.58352481617647 6.65210843373494  5.823529411764706 6.65210843373494  C 5.063534007352941 6.65210843373494  4.444852941176471 6.060758659638554  4.444852941176471 5.3343373493975905  C 4.444852941176471 4.607916039156627  5.063534007352941 4.016566265060241  5.823529411764706 4.016566265060241  C 6.58352481617647 4.016566265060241  7.202205882352942 4.607916039156627  7.202205882352942 5.3343373493975905  Z " fill-rule="nonzero" fill="#d9001b" stroke="none" transform="matrix(1 0 0 1 22 326 )" />
  </g>
</svg>