<?xml version="1.0" encoding="utf-8"?>
<svg version="1.1" xmlns:xlink="http://www.w3.org/1999/xlink" width="7px" height="11px" xmlns="http://www.w3.org/2000/svg">
  <g transform="matrix(1 0 0 1 -1016 -819 )">
    <path d="M 6.454828124999949 5.384703124999987  C 6.454921874999968 5.2388124999999945  6.399359375000017 5.0928906249999955  6.288046874999964 4.981515625000043  L 1.5902968750000355 0.28489062500000273  C 1.367937500000039 0.06239062500003457  1.0076249999999618 0.06239062500003457  0.78515625 0.28489062500000273  C 0.5626406249999718 0.5072499999999991  0.5626406249999718 0.8675624999999627  0.78515625 1.0900312500000382  L 5.079703125000037 5.384703124999987  L 0.7851875000000064 9.679250000000025  C 0.5626718749999782 9.90170312500004  0.5626718749999782 10.262078125000016  0.7851875000000064 10.484437500000013  C 0.8963750000000346 10.595671874999994  1.04200000000003 10.651343750000024  1.187750000000051 10.651343750000024  C 1.3333906249999927 10.651343750000024  1.4790625000000546 10.595671874999994  1.5902968750000355 10.484437500000013  L 6.276312500000017 5.798484375000044  C 6.38770312500003 5.687078124999971  6.455000000000041 5.530562499999974  6.454828124999949 5.384703124999987  Z " fill-rule="nonzero" fill="#fd675f" stroke="none" transform="matrix(1 0 0 1 1016 819 )" />
  </g>
</svg>